<mxfile host="Electron" modified="2024-05-28T07:43:44.681Z" agent="Mozilla/5.0 (Windows NT 10.0; Win64; x64) AppleWebKit/537.36 (KHTML, like Gecko) draw.io/23.1.5 Chrome/120.0.6099.109 Electron/28.1.0 Safari/537.36" etag="U66uHRvS1_FiGzGyd7Xt" version="23.1.5" type="device">
  <diagram name="Page-1" id="Qi-t01glrxD5a_toia9U">
    <mxGraphModel dx="1674" dy="844" grid="1" gridSize="10" guides="1" tooltips="1" connect="1" arrows="1" fold="1" page="1" pageScale="1" pageWidth="827" pageHeight="1169" math="0" shadow="0">
      <root>
        <mxCell id="0" />
        <mxCell id="1" parent="0" />
        <mxCell id="ATXnncdTTg0akxje9JAt-9" value="SMTP server" style="rounded=1;whiteSpace=wrap;html=1;" parent="1" vertex="1">
          <mxGeometry x="240" y="560" width="120" height="60" as="geometry" />
        </mxCell>
        <mxCell id="ATXnncdTTg0akxje9JAt-10" value="Login scherm" style="rounded=1;whiteSpace=wrap;html=1;" parent="1" vertex="1">
          <mxGeometry x="740" y="210" width="120" height="60" as="geometry" />
        </mxCell>
        <mxCell id="ATXnncdTTg0akxje9JAt-13" value="E-mail scherm" style="rounded=1;whiteSpace=wrap;html=1;" parent="1" vertex="1">
          <mxGeometry x="740" y="290" width="120" height="60" as="geometry" />
        </mxCell>
        <mxCell id="yhyHZ0cu2rC-bRcbzx8S-1" style="edgeStyle=orthogonalEdgeStyle;rounded=0;orthogonalLoop=1;jettySize=auto;html=1;" edge="1" parent="1" source="ATXnncdTTg0akxje9JAt-16" target="ATXnncdTTg0akxje9JAt-27">
          <mxGeometry relative="1" as="geometry" />
        </mxCell>
        <mxCell id="yhyHZ0cu2rC-bRcbzx8S-7" value="erft" style="edgeLabel;html=1;align=center;verticalAlign=middle;resizable=0;points=[];" vertex="1" connectable="0" parent="yhyHZ0cu2rC-bRcbzx8S-1">
          <mxGeometry x="-0.175" y="-1" relative="1" as="geometry">
            <mxPoint y="-11" as="offset" />
          </mxGeometry>
        </mxCell>
        <mxCell id="ATXnncdTTg0akxje9JAt-16" value="Model" style="rounded=1;whiteSpace=wrap;html=1;" parent="1" vertex="1">
          <mxGeometry x="40" y="400" width="120" height="60" as="geometry" />
        </mxCell>
        <mxCell id="yhyHZ0cu2rC-bRcbzx8S-4" style="edgeStyle=orthogonalEdgeStyle;rounded=0;orthogonalLoop=1;jettySize=auto;html=1;" edge="1" parent="1" source="ATXnncdTTg0akxje9JAt-19" target="ATXnncdTTg0akxje9JAt-26">
          <mxGeometry relative="1" as="geometry" />
        </mxCell>
        <mxCell id="yhyHZ0cu2rC-bRcbzx8S-5" value="erft" style="edgeLabel;html=1;align=center;verticalAlign=middle;resizable=0;points=[];" vertex="1" connectable="0" parent="yhyHZ0cu2rC-bRcbzx8S-4">
          <mxGeometry x="-0.1" y="-3" relative="1" as="geometry">
            <mxPoint x="3" y="3" as="offset" />
          </mxGeometry>
        </mxCell>
        <mxCell id="ATXnncdTTg0akxje9JAt-19" value="View" style="rounded=1;whiteSpace=wrap;html=1;" parent="1" vertex="1">
          <mxGeometry x="500" y="130" width="120" height="60" as="geometry" />
        </mxCell>
        <mxCell id="yhyHZ0cu2rC-bRcbzx8S-3" style="edgeStyle=orthogonalEdgeStyle;rounded=0;orthogonalLoop=1;jettySize=auto;html=1;" edge="1" parent="1" source="ATXnncdTTg0akxje9JAt-22" target="ATXnncdTTg0akxje9JAt-25">
          <mxGeometry relative="1" as="geometry" />
        </mxCell>
        <mxCell id="yhyHZ0cu2rC-bRcbzx8S-6" value="erft" style="edgeLabel;html=1;align=center;verticalAlign=middle;resizable=0;points=[];" vertex="1" connectable="0" parent="yhyHZ0cu2rC-bRcbzx8S-3">
          <mxGeometry x="-0.2" y="-1" relative="1" as="geometry">
            <mxPoint x="1" y="6" as="offset" />
          </mxGeometry>
        </mxCell>
        <mxCell id="ATXnncdTTg0akxje9JAt-22" value="Controller" style="rounded=1;whiteSpace=wrap;html=1;" parent="1" vertex="1">
          <mxGeometry x="240" y="130" width="120" height="60" as="geometry" />
        </mxCell>
        <mxCell id="ATXnncdTTg0akxje9JAt-38" style="edgeStyle=orthogonalEdgeStyle;rounded=0;orthogonalLoop=1;jettySize=auto;html=1;" parent="1" source="ATXnncdTTg0akxje9JAt-24" target="ATXnncdTTg0akxje9JAt-25" edge="1">
          <mxGeometry relative="1" as="geometry" />
        </mxCell>
        <mxCell id="ATXnncdTTg0akxje9JAt-39" value="initialiseert" style="edgeLabel;html=1;align=center;verticalAlign=middle;resizable=0;points=[];" parent="ATXnncdTTg0akxje9JAt-38" vertex="1" connectable="0">
          <mxGeometry x="0.15" y="-3" relative="1" as="geometry">
            <mxPoint x="-6" y="-13" as="offset" />
          </mxGeometry>
        </mxCell>
        <mxCell id="ATXnncdTTg0akxje9JAt-24" value="Launcher" style="rounded=1;whiteSpace=wrap;html=1;" parent="1" vertex="1">
          <mxGeometry x="40" y="250" width="120" height="60" as="geometry" />
        </mxCell>
        <mxCell id="ATXnncdTTg0akxje9JAt-32" style="edgeStyle=orthogonalEdgeStyle;rounded=0;orthogonalLoop=1;jettySize=auto;html=1;" parent="1" source="ATXnncdTTg0akxje9JAt-25" target="ATXnncdTTg0akxje9JAt-26" edge="1">
          <mxGeometry relative="1" as="geometry" />
        </mxCell>
        <mxCell id="ATXnncdTTg0akxje9JAt-44" value="bestuurt en haalt&lt;div&gt;&amp;nbsp;informatie/gegevens op&lt;/div&gt;" style="edgeLabel;html=1;align=center;verticalAlign=middle;resizable=0;points=[];" parent="ATXnncdTTg0akxje9JAt-32" vertex="1" connectable="0">
          <mxGeometry x="0.025" y="-1" relative="1" as="geometry">
            <mxPoint y="-21" as="offset" />
          </mxGeometry>
        </mxCell>
        <mxCell id="ATXnncdTTg0akxje9JAt-36" style="edgeStyle=orthogonalEdgeStyle;rounded=0;orthogonalLoop=1;jettySize=auto;html=1;" parent="1" source="ATXnncdTTg0akxje9JAt-25" target="ATXnncdTTg0akxje9JAt-27" edge="1">
          <mxGeometry relative="1" as="geometry" />
        </mxCell>
        <mxCell id="ATXnncdTTg0akxje9JAt-43" value="bestuurt en verstuurt&amp;nbsp;&lt;div&gt;informatie/gegevens&lt;/div&gt;" style="edgeLabel;html=1;align=center;verticalAlign=middle;resizable=0;points=[];" parent="ATXnncdTTg0akxje9JAt-36" vertex="1" connectable="0">
          <mxGeometry x="-0.3" y="1" relative="1" as="geometry">
            <mxPoint x="-1" y="9" as="offset" />
          </mxGeometry>
        </mxCell>
        <mxCell id="ATXnncdTTg0akxje9JAt-25" value="Controller subclass" style="rounded=1;whiteSpace=wrap;html=1;" parent="1" vertex="1">
          <mxGeometry x="240" y="250" width="120" height="60" as="geometry" />
        </mxCell>
        <mxCell id="ATXnncdTTg0akxje9JAt-33" style="edgeStyle=orthogonalEdgeStyle;rounded=0;orthogonalLoop=1;jettySize=auto;html=1;entryX=0;entryY=0.5;entryDx=0;entryDy=0;" parent="1" source="ATXnncdTTg0akxje9JAt-26" target="ATXnncdTTg0akxje9JAt-13" edge="1">
          <mxGeometry relative="1" as="geometry">
            <Array as="points">
              <mxPoint x="700" y="280" />
              <mxPoint x="700" y="320" />
            </Array>
          </mxGeometry>
        </mxCell>
        <mxCell id="ATXnncdTTg0akxje9JAt-34" style="edgeStyle=orthogonalEdgeStyle;rounded=0;orthogonalLoop=1;jettySize=auto;html=1;" parent="1" source="ATXnncdTTg0akxje9JAt-26" target="ATXnncdTTg0akxje9JAt-10" edge="1">
          <mxGeometry relative="1" as="geometry">
            <Array as="points">
              <mxPoint x="700" y="280" />
              <mxPoint x="700" y="240" />
            </Array>
          </mxGeometry>
        </mxCell>
        <mxCell id="ATXnncdTTg0akxje9JAt-45" value="maakt" style="edgeLabel;html=1;align=center;verticalAlign=middle;resizable=0;points=[];" parent="ATXnncdTTg0akxje9JAt-34" vertex="1" connectable="0">
          <mxGeometry x="-0.7286" y="3" relative="1" as="geometry">
            <mxPoint x="18" y="-7" as="offset" />
          </mxGeometry>
        </mxCell>
        <mxCell id="ATXnncdTTg0akxje9JAt-26" value="View subclass" style="rounded=1;whiteSpace=wrap;html=1;" parent="1" vertex="1">
          <mxGeometry x="500" y="250" width="120" height="60" as="geometry" />
        </mxCell>
        <mxCell id="ATXnncdTTg0akxje9JAt-35" style="edgeStyle=orthogonalEdgeStyle;rounded=0;orthogonalLoop=1;jettySize=auto;html=1;" parent="1" source="ATXnncdTTg0akxje9JAt-27" target="ATXnncdTTg0akxje9JAt-9" edge="1">
          <mxGeometry relative="1" as="geometry" />
        </mxCell>
        <mxCell id="ATXnncdTTg0akxje9JAt-46" value="verwerkt informatie&lt;div&gt;&lt;div&gt;en verstuurt e-mail&lt;/div&gt;&lt;/div&gt;" style="edgeLabel;html=1;align=center;verticalAlign=middle;resizable=0;points=[];" parent="ATXnncdTTg0akxje9JAt-35" vertex="1" connectable="0">
          <mxGeometry x="-0.2" y="-1" relative="1" as="geometry">
            <mxPoint x="1" y="10" as="offset" />
          </mxGeometry>
        </mxCell>
        <mxCell id="ATXnncdTTg0akxje9JAt-27" value="Model subclass" style="rounded=1;whiteSpace=wrap;html=1;" parent="1" vertex="1">
          <mxGeometry x="240" y="400" width="120" height="60" as="geometry" />
        </mxCell>
        <mxCell id="ATXnncdTTg0akxje9JAt-50" style="edgeStyle=orthogonalEdgeStyle;rounded=0;orthogonalLoop=1;jettySize=auto;html=1;entryX=1;entryY=0.5;entryDx=0;entryDy=0;" parent="1" source="ATXnncdTTg0akxje9JAt-49" target="ATXnncdTTg0akxje9JAt-10" edge="1">
          <mxGeometry relative="1" as="geometry">
            <Array as="points">
              <mxPoint x="900" y="280" />
              <mxPoint x="900" y="240" />
            </Array>
          </mxGeometry>
        </mxCell>
        <mxCell id="ATXnncdTTg0akxje9JAt-51" style="edgeStyle=orthogonalEdgeStyle;rounded=0;orthogonalLoop=1;jettySize=auto;html=1;entryX=1;entryY=0.5;entryDx=0;entryDy=0;" parent="1" source="ATXnncdTTg0akxje9JAt-49" target="ATXnncdTTg0akxje9JAt-13" edge="1">
          <mxGeometry relative="1" as="geometry">
            <Array as="points">
              <mxPoint x="900" y="280" />
              <mxPoint x="900" y="320" />
            </Array>
          </mxGeometry>
        </mxCell>
        <mxCell id="ATXnncdTTg0akxje9JAt-53" value="bestuurt en ziet" style="edgeLabel;html=1;align=center;verticalAlign=middle;resizable=0;points=[];" parent="ATXnncdTTg0akxje9JAt-51" vertex="1" connectable="0">
          <mxGeometry x="-0.5625" relative="1" as="geometry">
            <mxPoint x="-11" y="-10" as="offset" />
          </mxGeometry>
        </mxCell>
        <mxCell id="ATXnncdTTg0akxje9JAt-49" value="Bestuurder" style="rounded=1;whiteSpace=wrap;html=1;" parent="1" vertex="1">
          <mxGeometry x="1000" y="250" width="120" height="60" as="geometry" />
        </mxCell>
        <mxCell id="yhyHZ0cu2rC-bRcbzx8S-2" style="edgeStyle=orthogonalEdgeStyle;rounded=0;orthogonalLoop=1;jettySize=auto;html=1;exitX=0.5;exitY=1;exitDx=0;exitDy=0;" edge="1" parent="1" source="ATXnncdTTg0akxje9JAt-22" target="ATXnncdTTg0akxje9JAt-22">
          <mxGeometry relative="1" as="geometry" />
        </mxCell>
      </root>
    </mxGraphModel>
  </diagram>
</mxfile>
